<?xml version="1.0" encoding="utf-8"?>
<!-- Svg Vector Icons : http://www.onlinewebfonts.com/icon -->
<!DOCTYPE svg PUBLIC "-//W3C//DTD SVG 1.1//EN" "http://www.w3.org/Graphics/SVG/1.1/DTD/svg11.dtd">
<svg version="1.1" xmlns="http://www.w3.org/2000/svg" xmlns:xlink="http://www.w3.org/1999/xlink" x="0px" y="0px" viewBox="0 0 1000 1000" enable-background="new 0 0 1000 1000" xml:space="preserve">
<metadata> Svg Vector Icons : http://www.onlinewebfonts.com/icon </metadata>
<g>
  <path d="M500,400.9c-113.7,0-205.8,92.2-205.8,205.9c0,113.7,92.2,205.9,205.8,205.9c113.7,0,205.9-92.2,205.9-205.9C705.9,493,613.7,400.9,500,400.9z M500,665.5c-32.4,0-58.7-26.3-58.7-58.7c0-32.4,26.3-58.7,58.7-58.7c32.4,0,58.7,26.3,58.7,58.7C558.7,639.2,532.4,665.5,500,665.5z"/>
  <path d="M500,354.9c-264.1,0-478.3,248.4-478.3,248.4S235.9,846.9,500,846.9c264.2,0,478.3-243.6,478.3-243.6S764.2,354.9,500,354.9z M500,827.6c-246.5,0-446.2-224.3-446.2-224.3s200.6-214,447.1-214c246.5,0,445.2,214,445.2,214S746.5,827.6,500,827.6z"/>
  <path d="M861.3,430.5c4.9-0.9,9.6-2.2,14.3-4c8.6-3.4,16.5-8.4,23.3-14.3c13.7-12,23.1-27.7,29.7-44c-8,15.7-18.7,30.2-32.7,40.3c-6.9,5-14.6,9-22.7,11.3c-8,2.3-16.8,3.3-24.3,2.2l0,0.1c-25.5-17.2-51.9-33.2-79.2-47.6c-0.7-0.4-1.5-0.7-2.2-1.1c6.6-2.8,12.7-6.1,18.5-10c9.9-6.8,18.6-15.2,25.4-24.9c13.8-19.4,19.7-42.7,20.7-65.4c-3.1,22.6-11.3,44.6-25.9,61.3c-7.2,8.4-15.9,15.2-25.4,20.5c-9.4,5.2-20.1,9-30,10.2l0,0.1c-35-17-71.5-31.2-109.2-41.5c5.9-4.7,11.3-10,16.3-15.7c10.2-11.8,17.8-25.5,22.8-39.8c10-28.9,9.3-59.4,4-87.9c2.1,29-1,58.7-13.3,84.1c-6.1,12.7-14.4,24-24.4,33.2c-9.3,8.6-20.9,15.9-31.7,19.7c-35.3-8-71.3-12.6-107.6-13.4c-3.4-8.5-6.2-17.8-8.5-26.9c-3.2-13.2-5.4-26.8-6.4-40.6c-2.1-27.6,0.4-55.8,7.2-83.3c-11.1,26.1-18.2,54.3-20.6,83.2c-1.2,14.5-1.2,29.1,0,43.8c0.7,8.1,1.7,16,3.2,24c-31.9,1-63.6,5-94.7,11.6c-10.7-3.7-22.2-10.7-31.4-19c-10.2-9.1-18.7-20.3-24.9-32.9c-12.7-25.2-16.3-54.9-14.7-84c-4.9,28.7-5,59.2,5.5,87.9c5.2,14.3,13.1,27.8,23.4,39.5c4.8,5.3,10,10.2,15.6,14.6c-36.3,9.6-71.6,22.8-105.5,38.7l0-0.1c-10.2-0.3-21.6-3-31.7-7.2c-10.3-4.3-20-10.1-28.4-17.7c-17.1-14.9-28.7-35.9-35.5-58.2c4.6,22.8,14.2,45.3,30.8,62.9c8.2,8.8,18,16.2,28.8,21.9c5.6,2.9,11.4,5.4,17.4,7.4c-2.6,1.3-5.2,2.5-7.8,3.9c-22.8,12-45,25.2-66.5,39.2c-7.3,0.9-15.7-0.1-23.3-2.3c-8.1-2.3-15.7-6.3-22.7-11.3c-13.9-10.1-24.6-24.6-32.7-40.3c6.6,16.3,16,32,29.8,44c6.8,6,14.7,10.9,23.3,14.3c4.4,1.6,8.8,3,13.4,3.9c-51.8,35.1-99.4,76-140.9,122.4c33.6-31.8,69.7-60.7,107.7-86.7c37.7-26.3,77.4-49.8,118.7-69.4c78.8-37.5,164.4-61.9,251-63.5c0.1,0.3,0.1,0.5,0.2,0.8l2-0.8c3.3-0.1,6.7-0.3,10-0.3c91.1,0,180.7,25.5,263.2,64.7c41.4,19.6,81.1,43,118.9,69.2c38.2,25.8,74.4,54.5,108.2,86C951.6,501.3,908.2,463.5,861.3,430.5z"/>
</g>
</svg>