<?xml version="1.0" encoding="utf-8"?>
<!-- Svg Vector Icons : http://www.onlinewebfonts.com/icon -->
<!DOCTYPE svg PUBLIC "-//W3C//DTD SVG 1.1//EN" "http://www.w3.org/Graphics/SVG/1.1/DTD/svg11.dtd">
<svg version="1.1" xmlns="http://www.w3.org/2000/svg" xmlns:xlink="http://www.w3.org/1999/xlink" x="0px" y="0px" viewBox="0 0 1000 1000" enable-background="new 0 0 1000 1000" xml:space="preserve">
<metadata> Svg Vector Icons : http://www.onlinewebfonts.com/icon </metadata>
<g color="#27c451">
  <path fill="currentcolor" d="M660.3,551.5c0,0-31.9-31.9-71.2-71.2l-69.8-69.7c-39.3-39.3-71.2-71.2-71.2-71.2L748.4,39.1c39.3-39.3,103.1-39.3,142.4,0l69.8,69.7c39.3,39.3,39.3,103.1,0,142.4L660.3,551.5z"/>
  <path fill="currentcolor" d="M250.7,354.9c70.7-70.7,161.3-65.2,204.2-22.3L667,544.8c39.1,39.1,45.6,130.7-25.1,201.4L250.7,354.9z"/>
  <path fill="currentcolor" d="M407.3,593l-62.8-62.8L10,990.4l457.5-337.1L407.3,593z"/>
</g>
</svg>